<svg width="32" height="32" viewBox="0 0 32 32" fill="none" xmlns="http://www.w3.org/2000/svg">
<g clip-path="url(#clip0_66_130)">
<path d="M10.5714 18H7.71429C7.24286 18 6.85714 17.6625 6.85714 17.25V14.75C6.85714 14.3375 7.24286 14 7.71429 14H10.5714C11.0429 14 11.4286 14.3375 11.4286 14.75V17.25C11.4286 17.6625 11.0429 18 10.5714 18ZM18.2857 17.25V14.75C18.2857 14.3375 17.9 14 17.4286 14H14.5714C14.1 14 13.7143 14.3375 13.7143 14.75V17.25C13.7143 17.6625 14.1 18 14.5714 18H17.4286C17.9 18 18.2857 17.6625 18.2857 17.25ZM25.1429 17.25V14.75C25.1429 14.3375 24.7571 14 24.2857 14H21.4286C20.9571 14 20.5714 14.3375 20.5714 14.75V17.25C20.5714 17.6625 20.9571 18 21.4286 18H24.2857C24.7571 18 25.1429 17.6625 25.1429 17.25ZM18.2857 23.25V20.75C18.2857 20.3375 17.9 20 17.4286 20H14.5714C14.1 20 13.7143 20.3375 13.7143 20.75V23.25C13.7143 23.6625 14.1 24 14.5714 24H17.4286C17.9 24 18.2857 23.6625 18.2857 23.25ZM11.4286 23.25V20.75C11.4286 20.3375 11.0429 20 10.5714 20H7.71429C7.24286 20 6.85714 20.3375 6.85714 20.75V23.25C6.85714 23.6625 7.24286 24 7.71429 24H10.5714C11.0429 24 11.4286 23.6625 11.4286 23.25ZM25.1429 23.25V20.75C25.1429 20.3375 24.7571 20 24.2857 20H21.4286C20.9571 20 20.5714 20.3375 20.5714 20.75V23.25C20.5714 23.6625 20.9571 24 21.4286 24H24.2857C24.7571 24 25.1429 23.6625 25.1429 23.25ZM32 7V29C32 30.6562 30.4643 32 28.5714 32H3.42857C1.53571 32 0 30.6562 0 29V7C0 5.34375 1.53571 4 3.42857 4H6.85714V0.75C6.85714 0.3375 7.24286 0 7.71429 0H10.5714C11.0429 0 11.4286 0.3375 11.4286 0.75V4H20.5714V0.75C20.5714 0.3375 20.9571 0 21.4286 0H24.2857C24.7571 0 25.1429 0.3375 25.1429 0.75V4H28.5714C30.4643 4 32 5.34375 32 7ZM28.5714 28.625V10H3.42857V28.625C3.42857 28.8312 3.62143 29 3.85714 29H28.1429C28.3786 29 28.5714 28.8312 28.5714 28.625Z" fill="#6597E1"/>
</g>
<defs>
<clipPath id="clip0_66_130">
<rect width="32" height="32" fill="white"/>
</clipPath>
</defs>
</svg>
