<svg xmlns="http://www.w3.org/2000/svg" width="80" height="80" fill="none" viewBox="0 0 80 80">
  <path stroke="#fff" stroke-linecap="round" stroke-linejoin="round" stroke-width="1.5" d="m33.501 35.355-23.57 23.57a6.667 6.667 0 1 0 9.428 9.429l23.57-23.57m14.38 1.214 12.928 12.928a6.666 6.666 0 1 1-9.428 9.428L40.114 47.659M22.442 19.68l-7.07 2.357L8.3 10.25l4.714-4.714L24.8 12.608l-2.357 7.072Zm0 0 9.434 9.434"/>
  <path stroke="#fff" stroke-linecap="round" stroke-linejoin="round" stroke-width="1.5" d="M33.501 35.355c-2.813-7.176-2.263-16.593 3.536-22.391 5.798-5.799 16.499-7.071 22.391-3.536L49.293 19.564l-.942 10.37 10.37-.942 10.135-10.136c3.536 5.893 2.263 16.594-3.535 22.392-5.799 5.798-15.215 6.348-22.392 3.535"/>
</svg>
