<svg xmlns="http://www.w3.org/2000/svg" width="80" height="80" fill="none" viewBox="0 0 80 80">
  <path fill="#fff" d="M7.5 7.5h20v-5h-25v25h5v-20Z"/>
  <path fill="#fff" d="M27.5 27.5v-15h-15v15h15Zm-10-10h5v5h-5v-5Zm33.75-10H72.5v20h5v-25H51.25v5Z"/>
  <path fill="#fff" d="M67.5 27.5v-15h-15v15h15Zm-10-10h5v5h-5v-5Zm-30 55h-20v-20h-5v25h25v-5Z"/>
  <path fill="#fff" d="M27.5 52.5h-15v15h15v-15Zm-5 10h-5v-5h5v5Zm50 10H51.25v5H77.5v-25h-5v20Z"/>
  <path fill="#fff" d="M42.5 47.5h20v10h5v-15h-25v5Z"/>
  <path fill="#fff" d="M67.5 67.5v-5h-30v-20h-25v5h20v20h35Zm-30-55h-5v15h5v-15Z"/>
  <path fill="#fff" d="M12.5 37.5h35v-25h-5v20h-30v5Zm55-5h-15v5h15v-5Zm-10 20h-5v5h5v-5Zm-10 0h-5v5h5v-5Z"/>
</svg>
