<svg xmlns="http://www.w3.org/2000/svg" width="80" height="80" fill="none" viewBox="0 0 80 80">
  <g clip-path="url(#a)">
    <path fill="#fff" d="m34.862 79.922-7.625-2.766c-.8-.28-1.25-1.328-1.024-2.328L43.275 1.36c.225-1 1.063-1.562 1.863-1.28l7.625 2.765c.8.281 1.25 1.328 1.025 2.328L36.725 78.64c-.238 1-1.063 1.578-1.863 1.28ZM20.612 62.39l5.438-7.25c.575-.766.537-1.985-.1-2.688L14.625 40 25.95 27.547c.637-.703.688-1.922.1-2.688l-5.438-7.25c-.562-.75-1.512-.797-2.124-.078L.474 38.625c-.637.734-.637 2 0 2.734l18.013 21.11c.612.718 1.562.687 2.125-.078Zm40.9.093 18.013-21.109c.637-.734.637-2 0-2.734L61.512 17.516c-.6-.703-1.55-.672-2.124.078l-5.438 7.25c-.575.765-.538 1.984.1 2.687l11.325 12.47L54.05 52.452c-.637.703-.688 1.922-.1 2.688l5.438 7.25c.562.765 1.512.797 2.125.093Z"/>
  </g>
  <defs>
    <clipPath id="a">
      <path fill="#fff" d="M0 0h80v80H0z"/>
    </clipPath>
  </defs>
</svg>
